<svg id="Layer_1" xmlns="http://www.w3.org/2000/svg" xmlns:xlink="http://www.w3.org/1999/xlink" viewBox="0 0 403 164"><style>.st0{clip-path:url(#SVGID_2_);fill:url(#SVGID_3_)}.st1{clip-path:url(#SVGID_5_);fill:url(#SVGID_6_)}.st2{clip-path:url(#SVGID_8_);fill:url(#SVGID_9_)}.st3{clip-path:url(#SVGID_11_);fill:url(#SVGID_12_)}.st4{clip-path:url(#SVGID_14_);fill:url(#SVGID_15_)}.st5{clip-path:url(#SVGID_17_);fill:url(#SVGID_18_)}.st6{clip-path:url(#SVGID_20_);fill:url(#SVGID_21_)}.st7{clip-path:url(#SVGID_23_);fill:url(#SVGID_24_)}.st8{clip-path:url(#SVGID_26_);fill:url(#SVGID_27_)}.st9{clip-path:url(#SVGID_29_);fill:url(#SVGID_30_)}.st10{clip-path:url(#SVGID_32_);fill:url(#SVGID_33_)}.st11{clip-path:url(#SVGID_35_);fill:url(#SVGID_36_)}.st12{clip-path:url(#SVGID_38_);fill:url(#SVGID_39_)}.st13{clip-path:url(#SVGID_41_);fill:url(#SVGID_42_)}.st14{clip-path:url(#SVGID_44_);fill:url(#SVGID_45_)}.st15{clip-path:url(#SVGID_47_);fill:url(#SVGID_48_)}.st16{clip-path:url(#SVGID_50_);fill:#34a7dc}.st17{clip-path:url(#SVGID_52_);fill:url(#SVGID_53_)}.st18{clip-path:url(#SVGID_55_);fill:url(#SVGID_56_)}.st19,.st20{clip-path:url(#SVGID_58_);fill:#e42a33}.st20{fill:#ee5b33}.st21{clip-path:url(#SVGID_60_);fill:url(#SVGID_61_)}</style><defs><path id="SVGID_1_" d="M5.7 145.6V137h4.5c1.7 0 2.9.1 3.7.4.8.3 1.4.8 1.8 1.5.5.7.7 1.5.7 2.3 0 .9-.2 1.7-.7 2.4-.5.7-1.1 1.2-1.9 1.5-.8.3-2.1.5-3.8.5H5.7zm-2.5-11.2v25.4h2.5V148h1.8c3.2 0 5.3-.1 6.5-.4 1.6-.4 2.8-1.1 3.7-2.2.9-1.1 1.4-2.5 1.4-4.2 0-1.7-.5-3.1-1.4-4.2-.9-1.1-2.1-1.8-3.6-2.2-1-.3-3-.4-5.9-.4h-5z"/></defs><clipPath id="SVGID_2_"><use xlink:href="#SVGID_1_" overflow="visible"/></clipPath><linearGradient id="SVGID_3_" gradientUnits="userSpaceOnUse" x1="-193.635" y1="391.52" x2="-192.635" y2="391.52" gradientTransform="matrix(0 -48.809 -48.809 0 19120.795 -9284.256)"><stop offset="0" stop-color="#03539d"/><stop offset=".005" stop-color="#03539d"/><stop offset=".7" stop-color="#10aac9"/><stop offset="1" stop-color="#7bc0d6"/></linearGradient><path class="st0" d="M3.2 134.4h15.9v25.4H3.2z"/><defs><path id="SVGID_4_" d="M37.7 139.8L42 149h-8.7l4.4-9.2zm-.3-5.4l-12 25.4h2.8l4-8.4h10.9l4 8.4h2.7L38 134.4h-.6z"/></defs><clipPath id="SVGID_5_"><use xlink:href="#SVGID_4_" overflow="visible"/></clipPath><linearGradient id="SVGID_6_" gradientUnits="userSpaceOnUse" x1="-193.635" y1="391.52" x2="-192.635" y2="391.52" gradientTransform="matrix(0 -48.809 -48.809 0 19147.342 -9284.256)"><stop offset="0" stop-color="#03539d"/><stop offset=".005" stop-color="#03539d"/><stop offset=".7" stop-color="#10aac9"/><stop offset="1" stop-color="#7bc0d6"/></linearGradient><path class="st1" d="M25.4 134.4h24.5v25.4H25.4z"/><defs><path id="SVGID_7_" d="M60.1 137.6c-2.6 2.5-3.9 5.7-3.9 9.4 0 3.5 1.1 6.6 3.2 9.1 2.6 3 6.1 4.4 10.5 4.4 2.3 0 4.5-.4 6.4-1.3 1.9-.9 3.5-2.1 4.7-3.7l-2-1.5c-2.4 2.8-5.4 4.2-8.9 4.2-3.2 0-5.9-1-8-3.1-2.1-2.1-3.2-4.7-3.2-7.8 0-2 .5-3.9 1.4-5.5.9-1.6 2.3-3 4-3.9 1.7-1 3.6-1.5 5.6-1.5 1.9 0 3.6.4 5.1 1.1 1.6.7 2.9 1.8 4 3.3l2-1.5c-1.2-1.7-2.8-3-4.7-3.9-1.9-.9-4-1.4-6.4-1.4-3.9-.2-7.2 1.1-9.8 3.6"/></defs><clipPath id="SVGID_8_"><use xlink:href="#SVGID_7_" overflow="visible"/></clipPath><linearGradient id="SVGID_9_" gradientUnits="userSpaceOnUse" x1="-193.635" y1="391.52" x2="-192.635" y2="391.52" gradientTransform="matrix(0 -48.8045 -48.8045 0 19176.565 -9283.395)"><stop offset="0" stop-color="#03539d"/><stop offset=".005" stop-color="#03539d"/><stop offset=".7" stop-color="#10aac9"/><stop offset="1" stop-color="#7bc0d6"/></linearGradient><path class="st2" d="M56.2 133.8H81v26.7H56.2z"/><defs><path id="SVGID_10_" d="M89.3 134.4h2.5v25.4h-2.5z"/></defs><clipPath id="SVGID_11_"><use xlink:href="#SVGID_10_" overflow="visible"/></clipPath><linearGradient id="SVGID_12_" gradientUnits="userSpaceOnUse" x1="-193.635" y1="391.52" x2="-192.635" y2="391.52" gradientTransform="matrix(0 -48.809 -48.809 0 19200.27 -9284.256)"><stop offset="0" stop-color="#03539d"/><stop offset=".005" stop-color="#03539d"/><stop offset=".7" stop-color="#10aac9"/><stop offset="1" stop-color="#7bc0d6"/></linearGradient><path class="st3" d="M89.3 134.4h2.5v25.4h-2.5z"/><defs><path id="SVGID_13_" d="M101.2 134.4v25.5h2.5v-12.5h10.2v-2.5h-10.2v-8h10.2v-2.5z"/></defs><clipPath id="SVGID_14_"><use xlink:href="#SVGID_13_" overflow="visible"/></clipPath><linearGradient id="SVGID_15_" gradientUnits="userSpaceOnUse" x1="-193.635" y1="391.52" x2="-192.635" y2="391.52" gradientTransform="matrix(0 -48.809 -48.809 0 19217.264 -9284.256)"><stop offset="0" stop-color="#03539d"/><stop offset=".005" stop-color="#03539d"/><stop offset=".7" stop-color="#10aac9"/><stop offset="1" stop-color="#7bc0d6"/></linearGradient><path class="st4" d="M101.2 134.4h12.7v25.4h-12.7z"/><defs><path id="SVGID_16_" d="M121.5 134.4h2.5v25.4h-2.5z"/></defs><clipPath id="SVGID_17_"><use xlink:href="#SVGID_16_" overflow="visible"/></clipPath><linearGradient id="SVGID_18_" gradientUnits="userSpaceOnUse" x1="-193.635" y1="391.52" x2="-192.635" y2="391.52" gradientTransform="matrix(0 -48.809 -48.809 0 19232.494 -9284.256)"><stop offset="0" stop-color="#03539d"/><stop offset=".005" stop-color="#03539d"/><stop offset=".7" stop-color="#10aac9"/><stop offset="1" stop-color="#7bc0d6"/></linearGradient><path class="st5" d="M121.5 134.4h2.5v25.4h-2.5z"/><defs><path id="SVGID_19_" d="M136.2 137.6c-2.6 2.5-3.9 5.7-3.9 9.4 0 3.5 1.1 6.6 3.2 9.1 2.6 3 6.1 4.4 10.5 4.4 2.3 0 4.5-.4 6.3-1.3 1.9-.9 3.5-2.1 4.7-3.7l-2-1.5c-2.4 2.8-5.4 4.2-8.9 4.2-3.2 0-5.9-1-8-3.1-2.1-2.1-3.2-4.7-3.2-7.8 0-2 .5-3.9 1.4-5.5.9-1.6 2.3-3 4-3.9 1.7-1 3.6-1.5 5.6-1.5 1.9 0 3.6.4 5.1 1.1 1.5.7 2.9 1.8 4 3.3l2-1.5c-1.2-1.7-2.8-3-4.7-3.9-1.9-.9-4.1-1.4-6.4-1.4-3.9-.2-7.1 1.1-9.7 3.6"/></defs><clipPath id="SVGID_20_"><use xlink:href="#SVGID_19_" overflow="visible"/></clipPath><linearGradient id="SVGID_21_" gradientUnits="userSpaceOnUse" x1="-193.635" y1="391.52" x2="-192.635" y2="391.52" gradientTransform="matrix(0 -48.8045 -48.8045 0 19252.629 -9283.395)"><stop offset="0" stop-color="#03539d"/><stop offset=".005" stop-color="#03539d"/><stop offset=".7" stop-color="#10aac9"/><stop offset="1" stop-color="#7bc0d6"/></linearGradient><path class="st6" d="M132.3 133.8h24.8v26.7h-24.8z"/><defs><path id="SVGID_22_" d="M181.1 134.6c-1 .5-1.7 1.2-2.2 2.2-.5.9-.8 1.9-.8 3 0 1.4.4 2.7 1.3 3.9.5.7 1.8 1.9 4 3.5 2.1 1.6 3.6 2.9 4.3 4.1.6.8.9 1.7.9 2.5 0 .7-.2 1.5-.6 2.1-.4.7-1 1.2-1.7 1.6-.8.4-1.6.6-2.4.6-2 0-3.8-1.4-5.3-4.2l-2.2 1.3c1.1 1.9 2.2 3.3 3.5 4.1 1.3.8 2.7 1.2 4.2 1.2 2 0 3.7-.7 5.1-2 1.4-1.4 2.1-3 2.1-4.8 0-1.3-.4-2.6-1.2-3.8-.8-1.3-2.3-2.7-4.5-4.3-1.9-1.4-3-2.2-3.3-2.5-.6-.6-1-1.2-1.3-1.7-.2-.5-.3-1.1-.3-1.6 0-.9.3-1.7 1-2.3.7-.6 1.5-.9 2.5-.9.8 0 1.5.2 2.2.6.7.4 1.5 1.2 2.4 2.5l2.1-1.6c-1.2-1.6-2.3-2.7-3.3-3.3-1-.6-2.2-.9-3.4-.9-1.1-.1-2.2.2-3.1.7"/></defs><clipPath id="SVGID_23_"><use xlink:href="#SVGID_22_" overflow="visible"/></clipPath><linearGradient id="SVGID_24_" gradientUnits="userSpaceOnUse" x1="-193.635" y1="391.52" x2="-192.635" y2="391.52" gradientTransform="matrix(0 -48.8045 -48.8045 0 19291.828 -9283.395)"><stop offset="0" stop-color="#03539d"/><stop offset=".005" stop-color="#03539d"/><stop offset=".7" stop-color="#10aac9"/><stop offset="1" stop-color="#7bc0d6"/></linearGradient><path class="st7" d="M176.4 133.8h14.9v26.7h-14.9z"/><defs><path id="SVGID_25_" d="M204.9 154.9c-2.1-2.1-3.1-4.6-3.1-7.6 0-2 .5-3.9 1.4-5.6.9-1.7 2.3-3 3.9-4 1.7-1 3.5-1.5 5.3-1.5 1.9 0 3.7.5 5.4 1.5 1.7 1 3 2.3 4 3.9.9 1.6 1.4 3.5 1.4 5.5s-.5 3.9-1.4 5.5c-.9 1.7-2.2 3-3.9 3.9-1.7 1-3.5 1.4-5.5 1.4-2.9.1-5.4-.9-7.5-3m.8-19.3c-2 1.2-3.6 2.8-4.8 4.9-1.2 2.1-1.8 4.3-1.8 6.8 0 3.7 1.3 6.8 3.9 9.4 2.6 2.6 5.8 3.9 9.5 3.9s6.9-1.3 9.5-3.9c2.6-2.6 3.9-5.7 3.9-9.5s-1.3-6.9-3.9-9.5c-2.6-2.6-5.8-3.9-9.7-3.9-2.3 0-4.6.6-6.6 1.8"/></defs><clipPath id="SVGID_26_"><use xlink:href="#SVGID_25_" overflow="visible"/></clipPath><linearGradient id="SVGID_27_" gradientUnits="userSpaceOnUse" x1="-193.635" y1="391.52" x2="-192.635" y2="391.52" gradientTransform="matrix(0 -48.8045 -48.8045 0 19320.441 -9283.395)"><stop offset="0" stop-color="#03539d"/><stop offset=".005" stop-color="#03539d"/><stop offset=".7" stop-color="#10aac9"/><stop offset="1" stop-color="#7bc0d6"/></linearGradient><path class="st8" d="M199.1 133.8h26.8v26.7h-26.8z"/><defs><path id="SVGID_28_" d="M248.9 134.4v15.3c0 2-.1 3.3-.3 4-.2.9-.6 1.7-1.1 2.3-.5.6-1.2 1.1-1.9 1.5-.8.4-1.6.5-2.4.5-1 0-1.9-.2-2.9-.7-1-.5-1.7-1-2.1-1.7-.5-.7-.8-1.5-.9-2.5-.1-.5-.1-1.6-.1-3.4v-15.3h-2.5v15.3c0 2.6.2 4.4.5 5.4.5 1.6 1.5 2.9 2.9 3.9 1.5 1 3.2 1.5 5.3 1.5 1.9 0 3.5-.5 4.8-1.6 1.3-1 2.2-2.3 2.7-3.7.4-1.4.7-3.2.7-5.5v-15.3h-2.7z"/></defs><clipPath id="SVGID_29_"><use xlink:href="#SVGID_28_" overflow="visible"/></clipPath><linearGradient id="SVGID_30_" gradientUnits="userSpaceOnUse" x1="-193.635" y1="391.52" x2="-192.635" y2="391.52" gradientTransform="matrix(0 -48.8056 -48.8056 0 19351.393 -9282.97)"><stop offset="0" stop-color="#03539d"/><stop offset=".005" stop-color="#03539d"/><stop offset=".7" stop-color="#10aac9"/><stop offset="1" stop-color="#7bc0d6"/></linearGradient><path class="st9" d="M234.6 134.4h16.8v26h-16.8z"/><defs><path id="SVGID_31_" d="M258.7 134.4v2.5h5.7v23h2.5v-23h5.7v-2.5z"/></defs><clipPath id="SVGID_32_"><use xlink:href="#SVGID_31_" overflow="visible"/></clipPath><linearGradient id="SVGID_33_" gradientUnits="userSpaceOnUse" x1="-193.635" y1="391.52" x2="-192.635" y2="391.52" gradientTransform="matrix(0 -48.809 -48.809 0 19375.348 -9284.256)"><stop offset="0" stop-color="#03539d"/><stop offset=".005" stop-color="#03539d"/><stop offset=".7" stop-color="#10aac9"/><stop offset="1" stop-color="#7bc0d6"/></linearGradient><path class="st10" d="M258.7 134.4h13.9v25.4h-13.9z"/><defs><path id="SVGID_34_" d="M295.3 134.4v10.7h-13v-10.7h-2.5v25.5h2.5v-12.3h13v12.3h2.5v-25.5z"/></defs><clipPath id="SVGID_35_"><use xlink:href="#SVGID_34_" overflow="visible"/></clipPath><linearGradient id="SVGID_36_" gradientUnits="userSpaceOnUse" x1="-193.635" y1="391.52" x2="-192.635" y2="391.52" gradientTransform="matrix(0 -48.809 -48.809 0 19398.482 -9284.256)"><stop offset="0" stop-color="#03539d"/><stop offset=".005" stop-color="#03539d"/><stop offset=".7" stop-color="#10aac9"/><stop offset="1" stop-color="#7bc0d6"/></linearGradient><path class="st11" d="M279.8 134.4h18v25.4h-18z"/><defs><path id="SVGID_37_" d="M334.2 134.4l-5.3 18.4-7.2-18.4h-.5l-7.3 18.4-5.2-18.4h-2.6l7.2 25.5h.5l7.7-19.3 7.5 19.3h.5l7.3-25.5z"/></defs><clipPath id="SVGID_38_"><use xlink:href="#SVGID_37_" overflow="visible"/></clipPath><linearGradient id="SVGID_39_" gradientUnits="userSpaceOnUse" x1="-193.635" y1="391.52" x2="-192.635" y2="391.52" gradientTransform="matrix(0 -48.809 -48.809 0 19431.125 -9284.256)"><stop offset="0" stop-color="#03539d"/><stop offset=".005" stop-color="#03539d"/><stop offset=".7" stop-color="#10aac9"/><stop offset="1" stop-color="#7bc0d6"/></linearGradient><path class="st12" d="M306.1 134.4h30.7v25.4h-30.7z"/><defs><path id="SVGID_40_" d="M345 134.4v25.5h14.5v-2.5h-11.9v-10h11.9v-2.5h-11.9v-8h12v-2.5z"/></defs><clipPath id="SVGID_41_"><use xlink:href="#SVGID_40_" overflow="visible"/></clipPath><linearGradient id="SVGID_42_" gradientUnits="userSpaceOnUse" x1="-193.635" y1="391.52" x2="-192.635" y2="391.52" gradientTransform="matrix(0 -48.809 -48.809 0 19462.02 -9284.256)"><stop offset="0" stop-color="#03539d"/><stop offset=".005" stop-color="#03539d"/><stop offset=".7" stop-color="#10aac9"/><stop offset="1" stop-color="#7bc0d6"/></linearGradient><path class="st13" d="M345 134.4h14.6v25.4H345z"/><defs><path id="SVGID_43_" d="M369.5 134.6c-1 .5-1.7 1.2-2.2 2.2-.5.9-.8 1.9-.8 3 0 1.4.4 2.7 1.4 3.9.5.7 1.8 1.9 4 3.5 2.1 1.6 3.6 2.9 4.3 4.1.6.8.9 1.7.9 2.5 0 .7-.2 1.5-.6 2.1-.4.7-1 1.2-1.7 1.6-.7.4-1.5.6-2.4.6-2 0-3.8-1.4-5.3-4.2l-2.2 1.3c1.1 1.9 2.2 3.3 3.5 4.1 1.2.8 2.6 1.2 4.2 1.2 2 0 3.7-.7 5.1-2 1.4-1.4 2.1-3 2.1-4.8 0-1.3-.4-2.6-1.2-3.8-.8-1.3-2.3-2.7-4.5-4.3-1.9-1.4-2.9-2.2-3.3-2.5-.6-.6-1-1.2-1.3-1.7-.2-.5-.3-1.1-.3-1.6 0-.9.3-1.7 1-2.3.6-.6 1.5-.9 2.5-.9.8 0 1.5.2 2.2.6.7.4 1.5 1.2 2.4 2.5l2.1-1.6c-1.2-1.6-2.3-2.7-3.3-3.3-1-.6-2.2-.9-3.4-.9-1.2-.1-2.2.2-3.2.7"/></defs><clipPath id="SVGID_44_"><use xlink:href="#SVGID_43_" overflow="visible"/></clipPath><linearGradient id="SVGID_45_" gradientUnits="userSpaceOnUse" x1="-193.635" y1="391.52" x2="-192.635" y2="391.52" gradientTransform="matrix(0 -48.8045 -48.8045 0 19480.295 -9283.395)"><stop offset="0" stop-color="#03539d"/><stop offset=".005" stop-color="#03539d"/><stop offset=".7" stop-color="#10aac9"/><stop offset="1" stop-color="#7bc0d6"/></linearGradient><path class="st14" d="M364.9 133.8h14.9v26.7h-14.9z"/><defs><path id="SVGID_46_" d="M386.2 134.4v2.5h5.6v23h2.6v-23h5.7v-2.5z"/></defs><clipPath id="SVGID_47_"><use xlink:href="#SVGID_46_" overflow="visible"/></clipPath><linearGradient id="SVGID_48_" gradientUnits="userSpaceOnUse" x1="-193.635" y1="391.52" x2="-192.635" y2="391.52" gradientTransform="matrix(0 -48.809 -48.809 0 19502.82 -9284.256)"><stop offset="0" stop-color="#03539d"/><stop offset=".005" stop-color="#03539d"/><stop offset=".7" stop-color="#10aac9"/><stop offset="1" stop-color="#7bc0d6"/></linearGradient><path class="st15" d="M386.2 134.4h13.9v25.4h-13.9z"/><defs><path id="SVGID_49_" d="M59.7 26.9l14.1 48.2H46.3l13.4-48.2zm284.3 0l14.1 48.2h-27.5L344 26.9zM321.3 4.7l-16.8 55.6V4.7h-48.2l-20.2 70-21.6-70h-47.2v42h-38.7v-42H98.8v55.6L82 4.7H37L3.3 116h31.1l5.4-19.1h39.9l5.7 19.1h43V72.5h38.7V116h30.1V36.9l26 79.2h25.5l26-79.2V116h44l5.4-19.1H364l5.7 19.1h30.2L366.3 4.7h-45z"/></defs><clipPath id="SVGID_50_"><use xlink:href="#SVGID_49_" overflow="visible"/></clipPath><path class="st16" d="M3.2 132.4h5.1c2.9 0 4.9.1 5.9.4 1.5.4 2.6 1.1 3.6 2.2.9 1.1 1.4 2.5 1.4 4.2 0 1.7-.5 3.1-1.4 4.2-.9 1.1-2.1 1.8-3.7 2.2-1.2.3-3.3.4-6.5.4H5.7v11.8H3.2v-25.4zm2.5 2.5v8.6l4.3.1c1.7 0 3-.2 3.8-.5.8-.3 1.4-.8 1.9-1.5s.7-1.5.7-2.4c0-.9-.2-1.6-.7-2.3-.5-.7-1.1-1.2-1.8-1.5-.7-.3-2-.4-3.7-.4H5.7zm32.4-2.5l11.8 25.4h-2.7l-4-8.4h-11l-4 8.4h-2.8l12-25.4h.7zm-.4 5.4l-4.4 9.2H42l-4.3-9.2zm43.4-.7l-2 1.5c-1.1-1.4-2.4-2.5-4-3.3-1.6-.7-3.3-1.1-5.1-1.1-2 0-3.9.5-5.6 1.5-1.7 1-3.1 2.3-4 3.9-1 1.6-1.4 3.5-1.4 5.5 0 3.1 1.1 5.7 3.2 7.8 2.1 2.1 4.8 3.1 8 3.1 3.6 0 6.5-1.4 8.9-4.2l2 1.5c-1.3 1.6-2.9 2.9-4.7 3.7-1.9.9-4 1.3-6.3 1.3-4.4 0-8-1.5-10.5-4.4-2.2-2.5-3.2-5.5-3.2-9.1 0-3.7 1.3-6.9 3.9-9.4 2.6-2.5 5.9-3.8 9.8-3.8 2.4 0 4.5.5 6.4 1.4 1.8 1.1 3.3 2.4 4.6 4.1m8.2-4.7h2.5v25.4h-2.5zm11.9 0H114v2.5h-10.2v8H114v2.5h-10.2v12.4h-2.6zm20.4 0h2.5v25.4h-2.5zm35.5 4.7l-2 1.5c-1.1-1.4-2.4-2.5-4-3.3-1.6-.7-3.3-1.1-5.1-1.1-2 0-3.9.5-5.6 1.5-1.7 1-3.1 2.3-4 3.9-1 1.6-1.4 3.5-1.4 5.5 0 3.1 1.1 5.7 3.2 7.8 2.1 2.1 4.8 3.1 8 3.1 3.6 0 6.5-1.4 8.9-4.2l2 1.5c-1.3 1.6-2.8 2.9-4.7 3.7-1.9.9-4 1.3-6.3 1.3-4.4 0-8-1.5-10.5-4.4-2.2-2.5-3.2-5.5-3.2-9.1 0-3.7 1.3-6.9 3.9-9.4 2.6-2.5 5.9-3.8 9.8-3.8 2.4 0 4.5.5 6.4 1.4 1.8 1.1 3.4 2.4 4.6 4.1m19.4 16l2.2-1.3c1.5 2.8 3.3 4.2 5.3 4.2.9 0 1.7-.2 2.4-.6.7-.4 1.3-.9 1.7-1.6.4-.7.6-1.4.6-2.1 0-.9-.3-1.7-.9-2.5-.8-1.1-2.2-2.5-4.3-4.1-2.1-1.6-3.4-2.8-4-3.5-.9-1.2-1.3-2.5-1.3-3.9 0-1.1.3-2.1.8-3 .5-.9 1.3-1.6 2.2-2.2 1-.5 2-.8 3.1-.8 1.2 0 2.3.3 3.4.9 1 .6 2.1 1.7 3.3 3.3l-2.1 1.6c-1-1.3-1.8-2.1-2.4-2.5-.7-.4-1.4-.6-2.2-.6-1 0-1.9.3-2.5.9-.6.6-1 1.4-1 2.3 0 .6.1 1.1.3 1.6.2.5.7 1.1 1.3 1.7.3.3 1.4 1.2 3.3 2.5 2.2 1.6 3.7 3.1 4.5 4.3.8 1.3 1.2 2.5 1.2 3.8 0 1.8-.7 3.4-2.1 4.8-1.4 1.4-3.1 2-5.1 2-1.5 0-2.9-.4-4.2-1.2-1.3-.7-2.5-2.1-3.5-4m35.8-21.3c3.9 0 7.1 1.3 9.7 3.9 2.6 2.6 3.9 5.7 3.9 9.5 0 3.7-1.3 6.9-3.9 9.5-2.6 2.6-5.7 3.9-9.5 3.9s-6.9-1.3-9.5-3.9c-2.6-2.6-3.9-5.7-3.9-9.4 0-2.4.6-4.7 1.8-6.8 1.2-2.1 2.8-3.7 4.8-4.9 2.1-1.2 4.3-1.8 6.6-1.8m.2 2.5c-1.9 0-3.7.5-5.3 1.5-1.7 1-3 2.3-3.9 4-.9 1.7-1.4 3.5-1.4 5.6 0 3 1 5.6 3.1 7.7 2.1 2.1 4.6 3.1 7.6 3.1 2 0 3.8-.5 5.5-1.4 1.7-1 3-2.3 3.9-3.9.9-1.7 1.4-3.5 1.4-5.5s-.5-3.8-1.4-5.5c-.9-1.6-2.3-2.9-4-3.9-1.8-1.3-3.6-1.7-5.5-1.7m22.1-1.9h2.5v15.3c0 1.8 0 3 .1 3.4.1 1 .4 1.8.9 2.5s1.2 1.2 2.1 1.7c1 .5 1.9.7 2.9.7.8 0 1.6-.2 2.4-.5.8-.4 1.4-.9 1.9-1.5s.9-1.4 1.1-2.3c.2-.6.3-2 .3-4v-15.3h2.5v15.3c0 2.3-.2 4.1-.7 5.5-.4 1.4-1.3 2.6-2.7 3.7-1.3 1-2.9 1.6-4.8 1.6-2.1 0-3.8-.5-5.3-1.5s-2.4-2.3-2.9-3.9c-.3-1-.5-2.8-.5-5.4v-15.3zm24.1 2.5v-2.5h13.9v2.5H267v22.9h-2.6v-22.9zm21.1-2.5h2.5v10.7h13v-10.7h2.5v25.4h-2.5v-12.2h-13v12.2h-2.5zm26.3 0h2.6l5.2 18.3 7.3-18.3h.5l7.2 18.3 5.3-18.3h2.6l-7.3 25.4h-.5l-7.5-19.2-7.7 19.2h-.5zm39 0h14.5v2.5h-12v8h11.9v2.5h-11.9v9.9h11.9v2.5h-14.4zm19.8 20.7l2.2-1.3c1.5 2.8 3.3 4.2 5.3 4.2.9 0 1.7-.2 2.4-.6.8-.4 1.3-.9 1.7-1.6.4-.7.6-1.4.6-2.1 0-.9-.3-1.7-.9-2.5-.8-1.1-2.2-2.5-4.4-4.1-2.1-1.6-3.4-2.8-4-3.5-.9-1.2-1.4-2.5-1.4-3.9 0-1.1.3-2.1.8-3 .5-.9 1.3-1.6 2.2-2.2 1-.5 2-.8 3.1-.8 1.2 0 2.3.3 3.4.9 1 .6 2.1 1.7 3.3 3.3l-2.1 1.6c-1-1.3-1.8-2.1-2.4-2.5-.7-.4-1.4-.6-2.2-.6-1 0-1.9.3-2.5.9-.7.6-1 1.4-1 2.3 0 .6.1 1.1.3 1.6.2.5.7 1.1 1.3 1.7.3.3 1.4 1.2 3.3 2.5 2.2 1.6 3.7 3.1 4.5 4.3.8 1.3 1.2 2.5 1.2 3.8 0 1.8-.7 3.4-2.1 4.8-1.4 1.4-3.1 2-5.1 2-1.5 0-2.9-.4-4.2-1.2-1.1-.7-2.2-2.1-3.3-4m21.3-18.2v-2.5h13.9v2.5h-5.6v22.9h-2.6v-22.9z"/><defs><path id="SVGID_51_" d="M223.3 116h23.5l-26.9-10.4 3.4 10.4zm-56.1 0h16.9l-16.9-11.6V116zm0-14.7L188 116h9.3V97l-30.1-11.6v15.9zm51.9 2l29.9 12 8.7-26.5 2.2-6.6-49.9-6.8 9.1 27.9zM94.2 116h10.5L103 73.7 94.2 116zm13.4 0h10.7l-11.8-42.4 1.1 42.4zm-24.4-7.6l2.3 7.6h5.9l8.4-43-16.6 35.4zm38 7.6h7.3v-9.4l-18.7-33.9 11.4 43.3zM14.4 79.3L7 103.8l60-28.7H46.3l.7-2.4-32.6 6.6zm62.2 17.6h3.1l2.2 7.3 14.8-32.6-20.1 25.3zm51.9 3.7V88.5l-15.8-17.4 15.8 29.5zm-69.3-3.7h13.7l21.2-27.4-34.9 27.4zm69.3-13.1v-5.9l-13.2-9.1 13.2 15zM6.2 106.5l-.6 1.9-2.3 7.5.1.1H31l4.3-3.5 4.5-15.7h14.9l37.2-30-85.7 39.7zM128.5 74v-1.5h5.5L117.2 66l11.3 8zm-56.9-6.3l1.3 4.6 17.6-8.4-18.9 3.8zm70.8 4.8h24.8v10l30.1 12.1V73.7L118.4 63l24 9.5zM69.5 60.4l1.2 4.2 19.1-4.1-20.5-.7.2.6zm-49.9 1.7l-4.4 14.6 32.6-7.1 2.9-10.4-29.9-1-1.2 3.9zm99.3-2.5l78.4 11.8V51.9l-78.4 7.7zm-50.5-2.9l21.5.4-23.2-6.3 1.7 5.9zm49.1-3.7l19.1-6.3h-8.2V46l-10.9 7zm126.4-5.7L236 74.7l-8-25.8-26 2.5 7.1 21.7 51.1 7.7 11.9-36.2-28.2 2.7zm-220.7 3l-1.7 5.6 30 .6 1.4-5.1 1.1-3.9L26.3 40l-3.1 10.3zm42.5-2.9l25.1 6.4-27.5-15 2.4 8.6zm50 2.7l12.8-7.8v-5.2l-12.8 13zm-16.9-9.2l1.7 4.3L98.8 33v7.9zm14.5 6.8l15.2-15.1v-10l-15.2 25.1zM27.1 37.5l27.7 7.1 1.7-6.1.8-2.8-25.5-13.9-4.7 15.7zm140.1 2v7.2h-21l-27.7 9.5 78.7-6.6V36.9l4.1 12.4 26.1-2.2-7.9-25.5-52.3 17.9zM37 4.7l-4.4 14.7 25.5 13.4 1.7-6 2.4 8.1 30.3 15.9L40.8 4.7H37zm7.5 0l50.1 43.7L64.3 4.7H44.5zm23 0l25 34.9-2-6.8-5.2-17.1-4.3-11H67.5zm31.3 0v7.5l5.1 32.5 3.6-40h-8.7zm11.6 0l-3.1 40.2 13.5-40.2h-10.4zm13.3 0L110.5 46l18-29V4.7h-4.8zm43.9 0h-.4v13.9L190 4.7h-22.4zm29.3 0h-2.8l-26.9 17v15.1l51.9-17-4.6-15h-17.6zm59.4 0l-.9 3.2 9.7-3.2h-8.8zm12.6 0l-14.1 4.8-10.4 36.1 28.2-2.4 2.1-6.4V43l29.7-2.5V4.7h-35.5zm52.4 0l-10.7 35.4 30.5-2.6 3-10.6 3 10.1 19.7-1.7-19.6 1.9 11 37.8h-27.5L341 37.9l-30.6 3-5.9 19.4V41.4l-29.7 2.9v38.6l90.4 13.6-90.4-12.3V116h44l5.4-19.1H364l5.7 19.1h30l.1-.1L366.3 4.7h-45z"/></defs><clipPath id="SVGID_52_"><use xlink:href="#SVGID_51_" overflow="visible"/></clipPath><radialGradient id="SVGID_53_" cx="-193.839" cy="388.812" r="1" gradientTransform="matrix(146.5174 0 0 -164.8765 28578.893 64120.781)" gradientUnits="userSpaceOnUse"><stop offset="0" stop-color="#ffd22f"/><stop offset=".5" stop-color="#ffd22f"/><stop offset="1" stop-color="#f69b31"/></radialGradient><path class="st17" d="M3.4 4.7h396.5v111.4H3.4z"/><defs><path id="SVGID_54_" d="M31.1 116h3.3l1-3.5-4.3 3.5zm188.4-11.4l.4 1.1 26.9 10.4h2l.2-.7-29.9-12 .4 1.2zm-52.3-.2l16.9 11.6h3.9l-20.8-14.7v3.1zm107.5-20.2l90.4 12.3-90.4-13.6v1.3zm-107.5 1.2L197.3 97v-2.4l-30.1-12.1v2.9zm42.7-10l49.9 6.8.1-.2.4-1.1-51.1-7.7.7 2.2zM15.2 76.7l-.8 2.6L47 72.7l.8-3-32.6 7zm5.6-18.4l29.9 1 .2-.8.6-2-30-.6-.7 2.4zm180.6-9.1l.7 2.2 26-2.5-.2-.5-.4-1.3-26.1 2.1zm43-3.6l-.5 1.7 28.3-2.8.4-1.3-28.2 2.4zm30.3-2.5v1.3l29.7-2.9v-.9l-29.7 2.5zm35.9-3l-.2.8 30.6-3 .1-.4-30.5 2.6zm-284.3-.2L54 47.4l.7-2.5.1-.3-27.7-7.1-.8 2.4zM347 37l.1.3 19.6-1.9L347 37zm-179.8-.3v2.8l52.4-18-.6-1.8-51.8 17zM31.8 21.8l25.5 13.9v-.1l.8-2.8-25.6-13.4-.7 2.4zM81 4.7l4.3 11-3.3-11h-1zm39.7 0l-13.5 40.2 3.1-40.2h-2.8l-3.6 40-5.1-32.5V33l1.7 12.2-1.7-4.3v19.4l-6.2-20.6-25-34.9h-3.3l30.4 43.7L44.5 4.7h-3.7l51.6 46.2-30.3-16 .1.3 1.1 3.6 27.5 15-25.1-6.4 1 3.4 23.2 6.3-21.5-.4.9 3.1 20.5.7-19.1 4.1.9 3 18.9-3.8L73 72.2l.8 2.8H67L7 103.8l-.4 1.4-.4 1.4L92 66.9l-37.2 30h4.4L94 69.5 72.9 96.9h3.7l20.1-25.3-14.8 32.6 1.2 4.2L99.8 73l-8.4 43h2.8l8.9-42.3 1.7 42.3h2.8l-1.1-42.4 11.8 42.4h2.9l-11.4-43.3 18.7 33.9v-6.1L112.7 71l15.8 17.4v-4.6l-13.2-15 13.2 9.1V74l-11.3-8 16.8 6.5h8.4l-24-9.6 78.9 10.7v-2.3l-78.4-11.8 78.4-7.7v-2.3l-78.7 6.6 27.7-9.5h-9.6L117.5 53l11-6.9v-3.8l-12.8 7.8 12.8-13v-4.4l-15.2 15.1 15.2-25.2v-5.7l-18 29 13.2-41.3h-3zm69.3 0l-22.8 13.9v3l26.9-17H190zm75 0l-9.7 3.2-.5 1.7 14.1-4.8H265z"/></defs><clipPath id="SVGID_55_"><use xlink:href="#SVGID_54_" overflow="visible"/></clipPath><radialGradient id="SVGID_56_" cx="-193.839" cy="388.812" r="1" gradientTransform="matrix(146.5174 0 0 -164.8765 28578.893 64120.781)" gradientUnits="userSpaceOnUse"><stop offset="0" stop-color="#fff2d2"/><stop offset=".5" stop-color="#fff2d2"/><stop offset="1" stop-color="#fde6cc"/></radialGradient><path class="st18" d="M6.2 4.7h360.5v111.4H6.2z"/><defs><path id="SVGID_57_" d="M59.7 26.9l14.1 48.2H46.3l13.4-48.2zm284.3 0l14.1 48.2h-27.5L344 26.9zM321.3 4.7l-16.8 55.6V4.7h-48.2l-20.2 70-21.6-70h-47.2v42h-38.7v-42H98.8v55.6L82 4.7H37L3.3 116h31.1l5.4-19.1h39.9l5.7 19.1h43V72.5h38.7V116h30.1V36.9l26 79.2h25.5l26-79.2V116h44l5.4-19.1H364l5.7 19.1h30.2L366.3 4.7h-45z"/></defs><clipPath id="SVGID_58_"><use xlink:href="#SVGID_57_" overflow="visible"/></clipPath><path class="st19" d="M83.1 29.3c.8 1.4 1.6 2.7 2.5 4.1.1.1.3.3.4.3.9.4 1.9.7 2.9 1 .1 0 .2.1.3.1-2.1-3.4-4.2-6.8-6.3-10.3-.6.5-1.2.9-1.9 1.4.7 1.1 1.4 2.3 2.1 3.4"/><path class="st20" d="M122 36.4l1.8 3c.1.1.2.2.3.2.7.3 1.4.5 2.1.7.1 0 .1 0 .2.1l-4.5-7.5c-.5.3-.9.7-1.4 1 .5.9 1 1.7 1.5 2.5"/><path class="st19" d="M39.9 49.7c.8 1.3 1.5 2.5 2.3 3.8.1.1.2.3.4.3.9.3 1.8.6 2.6.9.1 0 .2.1.3.1-1.9-3.2-3.9-6.3-5.8-9.5-.6.4-1.2.8-1.7 1.3.6 1.1 1.2 2.1 1.9 3.1"/><defs><path id="SVGID_59_" d="M274.7 116h44l5.4-19.1H364l5.7 19.1h30.2l-8.7-28.7C381.1 82.8 370 78.7 358 75h-27.5l2-7c-17.9-4.3-37.3-7.7-57.8-10.2V116zm-51.4 0h25.5l19.3-58.9c-8.6-.9-17.4-1.7-26.3-2.2L236 74.7l-6.3-20.4c-8.8-.4-17.8-.6-26.9-.6l20.5 62.3zM53.1 35.8v15l5.1-18.4-5.1 3.4zM40.8 73.6v-.3c1 .2 2 .3 3 .5v1.6c-1 .3-2 .6-3 1v-2.8m79.7-14.5s0 .1 0 0c0 .1 0 0 0 0m2.2-3.9V55c.8.1 1.6.2 2.4.4v3l-2.4.3v-3.5M119.9 32c-3.7 1.2-7.3 2.3-11 3.5-.1 0-.2.1-.3.1l-8.4 5.7V62c-3.5.6-6.9 1.2-10.3 1.9h-.1c-1.8-.1-3.6-.3-5.4-.4-.2 0-.3-.1-.3-.4v-8.3c1.1.2 2.1.3 3.2.5v5.1c.9.1 1.9.2 2.8.3v-5.4c0-.3-.1-.3-.3-.4l-5.4-.9c-.2 0-.4-.1-.4-.4v-8.3c1.1.2 2.1.3 3.2.5V51c0 .1.1.3.2.3.8.2 1.7.3 2.6.5v-5.9c0-.3-.1-.3-.3-.4l-5.4-.9c-.2 0-.3-.1-.4-.3v-7.9c.6.2 1.1.3 1.6.5.5.1.9.3 1.3.4.2.1.3.2.3.4v4c0 .3.1.4.3.5.8.2 1.6.4 2.4.7v-5.7c0-.2-.1-.3-.3-.4-5.4-1.8-10.8-3.7-16.3-5.5h-.1v1.6c0 .1.2.2.3.2 1.3.4 2.5.8 3.8 1.2.2.1.3.2.3.5v4.4c0 .2 0 .3.3.4.8.2 1.6.5 2.4.7l.2.2v3.1c-2.5-.6-4.9-1.2-7.3-1.8v1.3c.4.1.9.2 1.3.3.9.2 1.8.4 2.8.6.2.1.3.2.3.4v5c1 .2 1.9.4 2.9.6v3.2c-2.4-.4-4.9-.8-7.3-1.2v.8c.7.1 1.3.2 1.9.3.7.1 1.5.2 2.2.3.2 0 .3.1.3.3V59c1 .1 1.9.2 2.9.3v3.5c-2.4-.2-4.9-.4-7.3-.6v4.7c-.6.1-1.3.3-1.9.4l2.1 7.3h-27l.1-.3v-1c0-.2-.1-.3-.3-.3-1.7-.3-3.3-.5-5-.8-.2 0-.3-.1-.3-.3v-7.2c1 .2 2 .3 3 .5V70c0 .1.1.2.2.3.8.2 1.6.3 2.4.5v-5.5c0-.2-.1-.3-.3-.3-1.7-.3-3.3-.5-5-.8-.2 0-.3-.1-.3-.2v-7.3c.5.2 1 .3 1.5.5.4.1.8.3 1.2.4.2.1.3.2.3.4v3.7c0 .3.1.4.3.4.7.2 1.5.4 2.3.6v-5.3c0-.2-.1-.3-.3-.4l-15-5.1H31v1.5c0 .1.2.2.3.2 1.2.4 2.3.8 3.5 1.1.2.1.3.2.3.4v4.1c0 .2 0 .3.3.4.7.2 1.5.4 2.2.7l.2.2v2.9c-2.3-.6-4.5-1.1-6.8-1.7v1.2l1.2.3c.9.2 1.7.4 2.6.6.2.1.3.1.3.4v4.6c.9.2 1.8.4 2.7.5v3c-2.3-.4-4.5-.7-6.8-1.1v.8l1.8.3c.7.1 1.3.2 2 .3.2 0 .3.1.3.3v5.6c-2.1.4-4.1 1.1-6.1 1.9V51.1h-.1c0-.1.1-.2.2-.3 3.3-2.4 6.6-4.8 9.9-7.3.1 0 .1-.1.2-.2-.7.2-1.3.4-2 .6-4.5 1.4-9 2.8-13.4 4.3L12.1 87.1 3.3 116h31.1l5.4-19.1h39.9l5.7 19.1h43V72.5h38.7V116h30.1V53.7c-24.4.2-48 1.7-70.2 4.4v-2.7c0-.2-.1-.2-.2-.3l-3.9-.6c-.2 0-.3-.1-.3-.3v-6.1c.8.1 1.6.2 2.3.4v3.8l.1.2c.6.1 1.2.2 1.9.4v-4.4c0-.2-.1-.2-.2-.3l-3.9-.6c-.2 0-.2-.1-.3-.2v-5.7c.4.1.8.3 1.2.4.3.1.6.2 1 .3.2 0 .2.1.2.3v2.9c0 .2.1.3.2.3.6.2 1.2.3 1.8.5v-4.1c0-.2-.1-.2-.2-.3-3.9-1.3-7.9-2.7-11.8-4h-.1v1.2l.2.1c.9.3 1.8.6 2.8.9.2.1.2.1.2.3v3.2c0 .2 0 .2.2.3.6.2 1.2.3 1.7.5l.2.2V47c-1.8-.4-3.5-.9-5.3-1.3v1c.3.1.6.2 1 .2.7.2 1.3.3 2 .5.2 0 .2.1.2.3v3.6c.7.1 1.4.3 2.1.4V54c-1.8-.3-3.5-.6-5.3-.9v.6c.5.1.9.1 1.4.2.5.1 1.1.2 1.6.2.2 0 .2.1.2.2V59c-1.6.2-3.2.4-4.8.7V37.5h-.1l.2-.2 7.8-5.7.1-.1c-.2.1-.8.3-1.3.5m-39.6-8.9c-5.1 1.6-10.1 3.2-15.2 4.8-.1 0-.3.1-.4.2l-3.9 2.6 10.5 36V30.8h-.1c0-.1.1-.2.2-.3 3.6-2.6 7.2-5.2 10.7-7.9l.2-.2c-.6.3-1.3.5-2 .7"/></defs><clipPath id="SVGID_60_"><use xlink:href="#SVGID_59_" overflow="visible"/></clipPath><radialGradient id="SVGID_61_" cx="-193.621" cy="388.843" r=".999" gradientTransform="matrix(197.6573 0 0 -197.6573 38472.281 76996.398)" gradientUnits="userSpaceOnUse"><stop offset="0" stop-color="#f69b31"/><stop offset=".086" stop-color="#f69b31"/><stop offset="1" stop-color="#e32232"/></radialGradient><path class="st21" d="M3.3 22.4h396.6V116H3.3z"/></svg>